<?xml version="1.0" encoding="UTF-8"?>
<svg version="1.1" xmlns="http://www.w3.org/2000/svg" width="401" height="90">
<path d="M0 0 C0.80232056 -0.00145523 1.60464111 -0.00291046 2.43127441 -0.00440979 C4.12235151 -0.00275473 5.81344428 0.00876253 7.50439453 0.02954102 C10.08561505 0.05850248 12.66478045 0.05014134 15.24609375 0.03710938 C16.8932391 0.04334735 18.54037799 0.05173875 20.1875 0.0625 C20.95533813 0.05956436 21.72317627 0.05662872 22.51428223 0.05360413 C27.03689091 0.13281078 30.02436062 0.65219341 33.59375 3.49609375 C36.97055152 9.21748671 37.05192307 14.46238695 36.96875 20.99609375 C36.98035156 21.90746094 36.99195313 22.81882812 37.00390625 23.7578125 C36.979441 29.40928601 36.49030504 33.58839351 33.59375 38.49609375 C29.3828723 41.85553257 25.36918184 41.93551223 20.1875 41.89453125 C18.98401917 41.89883652 18.98401917 41.89883652 17.75622559 41.90322876 C16.06517834 41.90526413 14.37410727 41.89977115 12.68310547 41.88720703 C10.10200102 41.8711451 7.52246228 41.88707279 4.94140625 41.90625 C3.29426739 41.90426747 1.64712951 41.9004236 0 41.89453125 C-0.76783813 41.90060394 -1.53567627 41.90667664 -2.32678223 41.91293335 C-6.85620997 41.85379307 -9.83289572 41.34649816 -13.40625 38.49609375 C-16.79585004 32.76041682 -16.86423483 27.48478489 -16.78125 20.93359375 C-16.79285156 20.01384766 -16.80445312 19.09410156 -16.81640625 18.14648438 C-16.78837905 11.64884543 -16.03458652 7.18101977 -11.31982422 2.36474609 C-7.54391423 -0.05697463 -4.34253211 -0.06353411 0 0 Z M-5.40625 12.49609375 C-5.68195606 15.41324176 -5.7785061 18.08477635 -5.71875 20.99609375 C-5.72197266 21.78113281 -5.72519531 22.56617188 -5.72851562 23.375 C-5.86032925 27.91202667 -5.86032925 27.91202667 -3.40625 31.49609375 C0.86624863 31.98281339 5.17170573 31.86649798 9.46875 31.87109375 C10.66628906 31.89558594 11.86382812 31.92007813 13.09765625 31.9453125 C14.82435547 31.95111328 14.82435547 31.95111328 16.5859375 31.95703125 C17.64151855 31.96524902 18.69709961 31.9734668 19.78466797 31.98193359 C23.28924229 31.3758061 24.45649812 30.29050095 26.59375 27.49609375 C27.18872447 24.36384838 27.18872447 24.36384838 27.03125 20.99609375 C27.02931641 19.31 27.02931641 19.31 27.02734375 17.58984375 C26.54418351 14.14243017 26.03426895 12.93046041 23.59375 10.49609375 C20.84391919 9.91170841 20.84391919 9.91170841 17.71875 10.03515625 C16.56890625 10.03902344 15.4190625 10.04289062 14.234375 10.046875 C12.43226562 10.08361328 12.43226562 10.08361328 10.59375 10.12109375 C9.39234375 10.12238281 8.1909375 10.12367187 6.953125 10.125 C0.40043333 9.95470011 0.40043333 9.95470011 -5.40625 12.49609375 Z " fill="#5584AC" transform="translate(105.40625,19.50390625)"/>
<path d="M0 0 C3.3 0 6.6 0 10 0 C10.33 8.25 10.66 16.5 11 25 C12.44632813 22.67001953 12.44632813 22.67001953 13.921875 20.29296875 C15.19752034 18.25756406 16.47358384 16.2224214 17.75 14.1875 C18.38421875 13.16333984 19.0184375 12.13917969 19.671875 11.08398438 C20.290625 10.10107422 20.909375 9.11816406 21.546875 8.10546875 C22.11245117 7.19949951 22.67802734 6.29353027 23.26074219 5.36010742 C25.03070824 2.95833008 26.41955775 1.486296 29 0 C31.29003906 -0.34057617 31.29003906 -0.34057617 33.765625 -0.29296875 C34.65507812 -0.28330078 35.54453125 -0.27363281 36.4609375 -0.26367188 C37.38132813 -0.23853516 38.30171875 -0.21339844 39.25 -0.1875 C40.18585938 -0.17396484 41.12171875 -0.16042969 42.0859375 -0.14648438 C44.39121327 -0.11119954 46.6953106 -0.06190281 49 0 C41.5 5 41.5 5 38 5 C37.7525 5.53625 37.505 6.0725 37.25 6.625 C35.70346419 9.56341804 33.85472526 12.24807025 32 15 C33.89269047 16.91985828 35.78899017 18.83591037 37.6875 20.75 C38.21794922 21.28882812 38.74839844 21.82765625 39.29492188 22.3828125 C41.74467403 24.84759381 44.0388821 27.02789368 46.875 29.0625 C49 31 49 31 49.48828125 33.578125 C49.32552083 36.05208333 49.16276042 38.52604167 49 41 C45.04 41 41.08 41 37 41 C36.855625 40.030625 36.71125 39.06125 36.5625 38.0625 C35.01802884 32.39556822 30.20665655 28.81715131 26 25 C22.84558358 27.98429059 20.328225 31.15226919 17.8125 34.6875 C14.06944444 39.93055556 14.06944444 39.93055556 13 41 C8.71 41 4.42 41 0 41 C0 27.47 0 13.94 0 0 Z " fill="#5584AC" transform="translate(149,20)"/>
<path d="M0 0 C0.38220703 0.68400879 0.76441406 1.36801758 1.15820312 2.07275391 C2.93811899 5.25721831 4.71901965 8.44113082 6.5 11.625 C7.13695801 12.76461182 7.77391602 13.90422363 8.43017578 15.07836914 C11.16677953 19.9684401 13.90335424 24.85727316 16.7109375 29.70703125 C17.08541016 30.35397949 17.45988281 31.00092773 17.84570312 31.66748047 C18.80724677 33.32098888 19.77450309 34.97117159 20.7421875 36.62109375 C22 39 22 39 22 41 C20.10927993 41.21711618 18.21131785 41.37173245 16.3125 41.5 C14.72888672 41.63921875 14.72888672 41.63921875 13.11328125 41.78125 C9.60911364 40.90191057 9.34465045 40.58066122 7.5 37.6875 C6.64604744 36.13617292 5.81470782 34.57229191 5 33 C3.96292348 31.1350362 2.92512642 29.27047295 1.88671875 27.40625 C0.81777824 25.43887483 -0.24859328 23.47010186 -1.3125 21.5 C-1.86228516 20.48679687 -2.41207031 19.47359375 -2.97851562 18.4296875 C-4.32127475 15.95434025 -5.66171202 13.47776652 -7 11 C-15.57502669 20.64780089 -15.57502669 20.64780089 -21 32 C-17.7 32 -14.4 32 -11 32 C-11 34.97 -11 37.94 -11 41 C-14.41751005 41.10792137 -17.83161597 41.18727736 -21.25 41.25 C-22.21808594 41.28351562 -23.18617188 41.31703125 -24.18359375 41.3515625 C-31.26831097 41.44928274 -31.26831097 41.44928274 -34.671875 39.359375 C-36.41474367 36.26322007 -36.50856346 34.51087228 -36 31 C-34.20831355 27.3776774 -31.76395062 24.24233629 -29.38671875 20.98095703 C-27.79026535 18.70038962 -26.32283148 16.35437744 -24.84375 13.99609375 C-23.68931621 12.2461963 -22.53306146 10.49749882 -21.375 8.75 C-20.85663574 7.89124268 -20.33827148 7.03248535 -19.80419922 6.14770508 C-14.55792875 -1.49891591 -8.74043538 -0.95914898 0 0 Z " fill="#5584AC" transform="translate(241,20)"/>
<path d="M0 0 C0.80448578 -0.0159874 1.60897156 -0.03197479 2.43783569 -0.04844666 C3.73631943 -0.05649071 3.73631943 -0.05649071 5.06103516 -0.06469727 C6.4019371 -0.07823997 6.4019371 -0.07823997 7.76992798 -0.09205627 C9.66120045 -0.10656328 11.55252316 -0.11544663 13.44384766 -0.11914062 C16.33273212 -0.13103203 19.2194769 -0.18020719 22.10791016 -0.23071289 C23.94644141 -0.24017788 25.78498577 -0.24741255 27.62353516 -0.25219727 C28.9159462 -0.28149574 28.9159462 -0.28149574 30.23446655 -0.31138611 C34.62283708 -0.27849064 36.4313824 -0.10783378 40.02905273 2.63305664 C42.50150992 6.02954469 42.49739159 7.96497662 42.28759766 12.11889648 C42.24248047 13.2803418 42.19736328 14.44178711 42.15087891 15.63842773 C42.06386719 16.95907227 42.06386719 16.95907227 41.97509766 18.30639648 C39.00509766 18.30639648 36.03509766 18.30639648 32.97509766 18.30639648 C32.48009766 14.84139648 32.48009766 14.84139648 31.97509766 11.30639648 C26.53009766 10.81139648 26.53009766 10.81139648 20.97509766 10.30639648 C20.97509766 20.53639648 20.97509766 30.76639648 20.97509766 41.30639648 C17.34509766 41.30639648 13.71509766 41.30639648 9.97509766 41.30639648 C9.97509766 31.07639648 9.97509766 20.84639648 9.97509766 10.30639648 C5.52009766 10.80139648 5.52009766 10.80139648 0.97509766 11.30639648 C0.64509766 13.61639648 0.31509766 15.92639648 -0.02490234 18.30639648 C-3.32490234 18.30639648 -6.62490234 18.30639648 -10.02490234 18.30639648 C-10.58802527 6.39738947 -10.58802527 6.39738947 -7.02490234 2.30639648 C-4.00701425 0.29447109 -3.3875731 0.05100792 0 0 Z " fill="#5584AC" transform="translate(40.02490234375,19.693603515625)"/>
<path d="M0 0 C3.3 0 6.6 0 10 0 C10.01981934 0.76143311 10.03963867 1.52286621 10.06005859 2.30737305 C10.15549922 5.76775472 10.26510212 9.22754855 10.375 12.6875 C10.4059375 13.88568359 10.436875 15.08386719 10.46875 16.31835938 C10.50742187 17.47529297 10.54609375 18.63222656 10.5859375 19.82421875 C10.6173584 20.88729248 10.6487793 21.95036621 10.68115234 23.0456543 C10.91237503 26.43251724 10.91237503 26.43251724 13 31 C24.22 31.33 35.44 31.66 47 32 C47 34.97 47 37.94 47 41 C41.25260242 41.12377604 35.50598373 41.21442248 29.75756836 41.2746582 C27.80300377 41.29977281 25.84853283 41.33387131 23.89428711 41.37719727 C21.08163332 41.43798434 18.27022298 41.46623983 15.45703125 41.48828125 C14.58601273 41.51408768 13.7149942 41.5398941 12.81758118 41.56648254 C8.39101277 41.56852005 6.58070771 41.44925852 2.97143555 38.65698242 C-0.23011939 34.34211897 -0.13534104 30.64565574 -0.09765625 25.48828125 C-0.0962413 24.76005661 -0.09482635 24.03183197 -0.09336853 23.28153992 C-0.08777659 20.95848461 -0.07522562 18.63552612 -0.0625 16.3125 C-0.05748396 14.73632952 -0.05292123 13.16015752 -0.04882812 11.58398438 C-0.0378098 7.72261902 -0.02055074 3.86132592 0 0 Z " fill="#5584AC" transform="translate(270,20)"/>
<path d="M0 0 C4.35453922 0.25614937 6.49609768 0.57277847 9.875 3.4375 C13.23686418 7.49151269 13.13450212 10.33465251 13.09765625 15.4140625 C13.0962413 16.14370209 13.09482635 16.87334167 13.09336853 17.62509155 C13.08776531 19.95843585 13.07521235 22.29168464 13.0625 24.625 C13.05748541 26.20572778 13.05292243 27.78645707 13.04882812 29.3671875 C13.03779484 33.24482854 13.02052811 37.12239807 13 41 C9.37 41 5.74 41 2 41 C1.67 31.1 1.34 21.2 1 11 C-0.32 10.67 -1.64 10.34 -3 10 C-2.49287967 6.28111761 -1.88391785 3.26545761 0 0 Z " fill="#5584AC" transform="translate(327,20)"/>
</svg>
